Coordinates
nRows=10
nColumns=38

# SIMM Motion File Header:
name Coordinates
datacolumns 38
datarows 10
otherdata 1
range 2.23000000000000000000 2.23899999999999990000

Units are S.I. units (second, meters, Newtons, ...)
Angles are in degrees.

endheader
time	pelvis_tilt	pelvis_list	pelvis_rotation	pelvis_tx	pelvis_ty	pelvis_tz	hip_flexion_r	hip_adduction_r	hip_rotation_r	knee_angle_r	ankle_angle_r	subtalar_angle_r	mtp_angle_r	hip_flexion_l	hip_adduction_l	hip_rotation_l	knee_angle_l	ankle_angle_l	subtalar_angle_l	mtp_angle_l	lumbar_extension	lumbar_bending	lumbar_rotation	arm_flex_r	arm_add_r	arm_rot_r	elbow_flex_r	pro_sup_r	wrist_flex_r	wrist_dev_r	arm_flex_l	arm_add_l	arm_rot_l	elbow_flex_l	pro_sup_l	wrist_flex_l	wrist_dev_l
      2.23000000000000000000	     -5.11775162787496730000	      0.45162253829373478000	     -2.80920732199786770000	      0.80153599506307849000	      1.05376017113651280000	     -0.46222919539485263000	     19.31580315996711100000	     -0.00963861252718275880	     -3.80728519281642350000	     -8.02046085002147890000	    -14.88389500707058000000	      0.00000000000000000000	      0.00000000000000000000	     -5.32807333848804100000	     -0.16006867581897966000	     -4.90887134527337390000	    -33.24809632291189100000	    -24.76084572567457800000	      0.00000000000000000000	      0.00000000000000000000	     -3.80581508281066940000	      0.84377907054309853000	    -16.45669889963026100000	    -33.24493162457245200000	    -26.49043352223086600000	      2.45148362912730410000	    107.18100322115941000000	     73.85989439036468700000	      0.00000000000000000000	      0.00000000000000000000	     -6.19119555563059000000	    -37.02203840395854700000	     22.47825699294938000000	    130.67494660596822000000	     76.69099794429934000000	      0.00000000000000000000	      0.00000000000000000000
      2.23099999999999990000	     -5.13481471117557840000	      0.42719359384356331000	     -2.82749781635708120000	      0.80156978193028661000	      1.05334460213586280000	     -0.46199831259734803000	     19.36016408203510900000	      0.03413106664518233300	     -3.82645970152475230000	     -8.09678360533608730000	    -14.98622162929714500000	     -0.00000000000000000063	     -0.00000000000000000001	     -5.21126042227232040000	     -0.19920444258964828000	     -4.86045193322109540000	    -33.60771093967197500000	    -24.70519706951341000000	      0.00000000000000000006	      0.00000000000000000000	     -3.77188701655794520000	      0.88832963214198690000	    -16.40867781706913300000	    -33.22597987494249600000	    -26.45037742621588000000	      2.42304114732330960000	    107.16236284181339000000	     73.84113831347134700000	     -0.00000000000000000032	      0.00000000000000000070	     -6.23891843680473370000	    -37.00257904142984000000	     22.48461417950369400000	    130.62299168714671000000	     76.73295611357959000000	      0.00000000000000000100	     -0.00000000000000000002
      2.23199999999999980000	     -5.15057156557933740000	      0.40198840639451300000	     -2.84539420964177970000	      0.80160406591606703000	      1.05292186613651960000	     -0.46176834503716785000	     19.40386103565301900000	      0.07864878573525112300	     -3.84413574644260650000	     -8.18049277615795310000	    -15.08293329395786300000	      0.00000000000000000081	     -0.00000000000000000109	     -5.09444627069398500000	     -0.23880690002486724000	     -4.81191779910463600000	    -33.96924425607630800000	    -24.64625249516191700000	      0.00000000000000000057	      0.00000000000000000163	     -3.73930878686414530000	      0.93383685417170170000	    -16.36081961727866500000	    -33.20505380605554500000	    -26.41070407846107700000	      2.39673364513622290000	    107.14187857794077000000	     73.82350062196921700000	     -0.00000000000000000125	      0.00000000000000000201	     -6.28770105530355040000	    -36.98254603190014900000	     22.49017432170921500000	    130.56821807006267000000	     76.77618009520513500000	      0.00000000000000000289	     -0.00000000000000000065
      2.23300000000000010000	     -5.16496399091720450000	      0.37604156840862246000	     -2.86290355417710040000	      0.80163893096386996000	      1.05249206023314870000	     -0.46153933798754188000	     19.44679781359546700000	      0.12386853465067456000	     -3.86024688101389790000	     -8.27158443213263620000	    -15.17350606034749600000	      0.00000000000000000176	     -0.00000000000000000252	     -4.97774288845390080000	     -0.27883838243019576000	     -4.76333109147312510000	    -34.33256800442814700000	    -24.58406296487594700000	      0.00000000000000000316	      0.00000000000000000259	     -3.70813853502047410000	      0.98026764505206554000	    -16.31312095083062600000	    -33.18216289371138600000	    -26.37144511563773000000	      2.37253508954845450000	    107.11957854284030000000	     73.80693324454175300000	     -0.00000000000000000245	      0.00000000000000000237	     -6.33754865238596650000	    -36.96193791474702600000	     22.49491636733656100000	    130.51063523022734000000	     76.82072195304583300000	      0.00000000000000000461	     -0.00000000000000000008
      2.23400000000000000000	     -5.17792141267433250000	      0.34939728019694261000	     -2.88003407407496950000	      0.80167446887380056000	      1.05205530493016240000	     -0.46131134470349322000	     19.48885930106927900000	      0.16973201865921950000	     -3.87470911551861170000	     -8.37004844623988300000	    -15.25733902495888300000	      0.00000000000000000424	     -0.00000000000000000370	     -4.86127970417468180000	     -0.31925153510299126000	     -4.71475879145934320000	    -34.69753740090958200000	    -24.51874616774349700000	      0.00000000000000000520	      0.00000000000000000262	     -3.67844817936823310000	      1.02757904581901840000	    -16.26557719848643700000	    -33.15731727953914300000	    -26.33263552533733400000	      2.35041374620738130000	    107.09549952816005000000	     73.79137465371044900000	     -0.00000000000000000397	      0.00000000000000000114	     -6.38846666406673690000	    -36.94075607444609200000	     22.49881683721626400000	    130.45025781281385000000	     76.86663604439982600000	      0.00000000000000000731	      0.00000000000000000244
      2.23499999999999990000	     -5.18937332471750600000	      0.32210034653492986000	     -2.89679608681348720000	      0.80171075990419849000	      1.05161172264102580000	     -0.46108440995707739000	     19.52993448279227800000	      0.21618208544824430000	     -3.88744196841322690000	     -8.47588009027812110000	    -15.33381928060339000000	      0.00000000000000000511	     -0.00000000000000000569	     -4.74518408546212460000	     -0.36000042954862665000	     -4.66627002084890650000	    -35.06401199710966000000	    -24.45042433899205000000	      0.00000000000000000761	      0.00000000000000000189	     -3.65031147157086130000	      1.07572629816804310000	    -16.21818039365087900000	    -33.13052688005795700000	    -26.29430713237862700000	      2.33033568257024460000	    107.06968131232638000000	     73.77675931687237200000	     -0.00000000000000000523	     -0.00000000000000000075	     -6.44045746057278200000	    -36.91900524795922700000	     22.50185511517768300000	    130.38710435714489000000	     76.91396293283597200000	      0.00000000000000001070	      0.00000000000000000517
      2.23599999999999980000	     -5.19924974728399650000	      0.29419581673341849000	     -2.91320192304780030000	      0.80174787183237184000	      1.05116143731527510000	     -0.46085856983285511000	     19.56991691353545800000	      0.26316317985794802000	     -3.89836901719596000000	     -8.58907921676820150000	    -15.40232658716606200000	      0.00000000000000000433	     -0.00000000000000000876	     -4.62958067143231580000	     -0.40104100134853310000	     -4.61793571707311660000	    -35.43185631951589400000	    -24.37922326068039100000	      0.00000000000000000802	     -0.00000000000000000011	     -3.62380361954291440000	      1.12466321222286240000	    -16.17091927492811400000	    -33.10180125092107800000	    -26.25648845783866000000	      2.31226500212143860000	    107.04216630552408000000	     73.76301867753572600000	     -0.00000000000000000583	     -0.00000000000000000301	     -6.49352015767550930000	    -36.89669357754337400000	     22.50401369154161900000	    130.32119728879272000000	     76.96272859184318800000	      0.00000000000000001454	      0.00000000000000000657
      2.23700000000000010000	     -5.20748155228629180000	      0.26572871316232666000	     -2.92926583602934000000	      0.80178585918807466000	      1.05070457430992810000	     -0.46063385164146736000	     19.60870496094782200000	      0.31062167656681988000	     -3.90741819523799980000	     -8.70964932659958710000	    -15.46223740798482600000	      0.00000000000000000374	     -0.00000000000000001293	     -4.51459088267365160000	     -0.44233137202954775000	     -4.56982833595916740000	    -35.80094032658681200000	    -24.30527172715567000000	      0.00000000000000000823	     -0.00000000000000000183	     -3.59900103355732210000	      1.17434244218408620000	    -16.12377934804120700000	    -33.07114945413030700000	    -26.21920463118054900000	      2.29616405372312200000	    107.01299924151857000000	     73.75008205512756400000	     -0.00000000000000000602	     -0.00000000000000000553	     -6.54765046510932700000	    -36.87383265846467900000	     22.50527836157900900000	    130.25256291989555000000	     77.01294376753980900000	      0.00000000000000001942	      0.00000000000000000650
      2.23800000000000000000	     -5.21400078576882460000	      0.23674375880707707000	     -2.94500391058768730000	      0.80182476250339330000	      1.05024126027612930000	     -0.46041027382294697000	     19.64620205007707600000	      0.35850621066609623000	     -3.91452208937676580000	     -8.83759662418044730000	    -15.51292896021611700000	      0.00000000000000000330	     -0.00000000000000001751	     -4.40033242916315000000	     -0.48383216851276967000	     -4.52202155743126260000	    -36.17113985469485700000	    -24.22870101133878500000	      0.00000000000000000883	     -0.00000000000000000197	     -3.57598106816808900000	      1.22471575914845210000	    -16.07674294756106500000	    -33.03857993068277200000	    -26.18247729968771500000	      2.28199364143893790000	    106.98222687005952000000	     73.73787754408252200000	     -0.00000000000000000555	     -0.00000000000000000902	     -6.60284054783044280000	    -36.85043758463655200000	     22.50563842577391700000	    130.18123145502267000000	     77.06460334323917000000	      0.00000000000000002461	      0.00000000000000000698
      2.23899999999999990000	     -5.21874036817258700000	      0.20728505124277899000	     -2.96043396666342850000	      0.80186460780873148000	      1.04977162413782520000	     -0.46018784581874517000	     19.68231612620271800000	      0.40676803173464399000	     -3.91961825232814890000	     -8.97292884478747870000	    -15.55378333238782300000	      0.00000000000000000241	     -0.00000000000000002273	     -4.28691958813555110000	     -0.52550686418334236000	     -4.47459000690624540000	    -36.54233683156771700000	    -24.14964444216182900000	      0.00000000000000000964	     -0.00000000000000000219	     -3.55482246453726750000	      1.27573434156307890000	    -16.02978928568492400000	    -33.00410028100709100000	    -26.14632450966374900000	      2.26971324138176020000	    106.94989767115224000000	     73.72633289509836600000	     -0.00000000000000000412	     -0.00000000000000001363	     -6.65907873458279640000	    -36.82652706210100700000	     22.50508693198481700000	    130.10723702182580000000	     77.11768561478614000000	      0.00000000000000002995	      0.00000000000000000837
